<svg height="48" width="48" xmlns="http://www.w3.org/2000/svg"><path d="M40.682 6.746c-9.53-9.214-24.724-8.957-33.937.572-9.213 9.53-8.957 24.723.574 33.938 9.529 9.211 24.723 8.955 33.936-.574 9.214-9.53 8.956-24.724-.573-33.936zM31.844 30.32l-1.259 1.299c-.191.189-.92.795-1.796-.057l-4.741-4.594-4.588 4.746c-.849.879-1.587.305-1.77.137l-1.3-1.258c-.19-.189-.795-.918.053-1.795l4.592-4.751-4.641-4.498c-.216-.216-.983-1.1-.162-1.948l1.098-1.133c.773-.797 1.555-.311 1.9-.015l4.723 4.576 4.488-4.643c.217-.216 1.099-.985 1.948-.164l1.135 1.097c.798.771.313 1.554.016 1.9l-4.574 4.731 4.745 4.597c.876.853.302 1.592.133 1.773z" fill="#fff"/></svg>