<svg id="Layer_1" version="1.1" viewBox="0 0 100 100" xml:space="preserve" xmlns="http://www.w3.org/2000/svg" enable-background="new 0 0 100 100"><style>.st3{fill:#fff}</style><g id="Symbols_7_"><g id="Graphics-_x2F_-App-Icons-_x2F_-Stocks-"><g id="Stocks-Icon"><g id="Background_8_"><path d="M63.4 5.7c8.9 0 13.3 0 18.1 1.5 5.2 1.9 9.3 6 11.2 11.2 1.5 4.8 1.5 9.2 1.5 18.1v26.8c0 8.9 0 13.3-1.5 18.1-1.9 5.2-6 9.3-11.2 11.2-4.8 1.5-9.2 1.5-18.1 1.5H36.6c-8.9 0-13.3 0-18.1-1.5-5.2-1.9-9.3-6-11.2-11.2-1.5-4.8-1.5-9.2-1.5-18.1V36.6c0-8.9 0-13.3 1.5-18.1 1.9-5.2 6-9.3 11.2-11.2 4.8-1.5 9.2-1.5 18.1-1.5h26.8z" id="path-1_8_" fill="#141416"/></g><defs><filter filterUnits="userSpaceOnUse" height="63.9" id="Adobe_OpacityMaskFilter" width="90.5" x="4.6" y="31.4"><feColorMatrix values="1 0 0 0 0 0 1 0 0 0 0 0 1 0 0 0 0 0 1 0"/></filter></defs><mask height="63.9" id="mask-2_3_" maskUnits="userSpaceOnUse" width="90.5" x="4.6" y="31.4"><g filter="url(#Adobe_OpacityMaskFilter)"><path class="st3" d="M63.4 5.7c8.9 0 13.3 0 18.1 1.5 5.2 1.9 9.3 6 11.2 11.2 1.5 4.8 1.5 9.2 1.5 18.1v26.8c0 8.9 0 13.3-1.5 18.1-1.9 5.2-6 9.3-11.2 11.2-4.8 1.5-9.2 1.5-18.1 1.5H36.6c-8.9 0-13.3 0-18.1-1.5-5.2-1.9-9.3-6-11.2-11.2-1.5-4.8-1.5-9.2-1.5-18.1V36.6c0-8.9 0-13.3 1.5-18.1 1.9-5.2 6-9.3 11.2-11.2 4.8-1.5 9.2-1.5 18.1-1.5h26.8z" id="path-1_4_"/></g></mask><linearGradient gradientTransform="matrix(60.8306 0 0 -42.3468 4127.824 26636.492)" gradientUnits="userSpaceOnUse" id="Chart_1_" x1="-67.038" x2="-67.038" y1="628.241" y2="626.765"><stop offset="0" stop-color="#454545"/><stop offset="1" stop-color="#111112"/></linearGradient><path d="M5 56s2.6 0 5.3.9c2.3.7 4.7 2.4 6.1 2.3 3-.2 6.1-1.2 6.1-1.2l5.6-7.3 5.3 4.5L39 42.1l5.4 14.3 6.1 3.7 5.5-9.8 5.3-1.4L67 32.5l5.5 13.4 5.6-3.7L83.6 53l5.3-12.1 5.9-6.1V95H5.2L5 56z" id="Chart" mask="url(#mask-2_3_)" fill="url(#Chart_1_)" stroke="#fff" stroke-width=".75"/><defs><filter filterUnits="userSpaceOnUse" height="95.2" id="Adobe_OpacityMaskFilter_1_" width="6.6" x="63.3" y="3.5"><feColorMatrix values="1 0 0 0 0 0 1 0 0 0 0 0 1 0 0 0 0 0 1 0"/></filter></defs><mask height="95.2" id="mask-2_2_" maskUnits="userSpaceOnUse" width="6.6" x="63.3" y="3.5"><g filter="url(#Adobe_OpacityMaskFilter_1_)"><path class="st3" d="M63.4 5.7c8.9 0 13.3 0 18.1 1.5 5.2 1.9 9.3 6 11.2 11.2 1.5 4.8 1.5 9.2 1.5 18.1v26.8c0 8.9 0 13.3-1.5 18.1-1.9 5.2-6 9.3-11.2 11.2-4.8 1.5-9.2 1.5-18.1 1.5H36.6c-8.9 0-13.3 0-18.1-1.5-5.2-1.9-9.3-6-11.2-11.2-1.5-4.8-1.5-9.2-1.5-18.1V36.6c0-8.9 0-13.3 1.5-18.1 1.9-5.2 6-9.3 11.2-11.2 4.8-1.5 9.2-1.5 18.1-1.5h26.8z" id="path-1_3_"/></g></mask><g id="Line" mask="url(#mask-2_2_)"><path d="M66.9 29.4V3.5h-.7v25.8h.4c.2 0 .2.1.3.1zm0 8.1v61.3h-.7V37.5h.7zm-.3-.8c-1.8 0-3.3-1.5-3.3-3.3s1.5-3.3 3.3-3.3c1.8 0 3.3 1.5 3.3 3.3s-1.5 3.3-3.3 3.3z" id="path-4_16_"/><path d="M66.9 29.4V3.5h-.7v25.8h.4c.2 0 .2.1.3.1zm0 8.1v61.3h-.7V37.5h.7zm-.3-.8c-1.8 0-3.3-1.5-3.3-3.3s1.5-3.3 3.3-3.3c1.8 0 3.3 1.5 3.3 3.3s-1.5 3.3-3.3 3.3z" id="path-4_1_" fill="#01a6f1"/></g><defs><filter filterUnits="userSpaceOnUse" height="95.2" id="Adobe_OpacityMaskFilter_2_" width="67.9" x="16" y="3.5"><feColorMatrix values="1 0 0 0 0 0 1 0 0 0 0 0 1 0 0 0 0 0 1 0"/></filter></defs><mask height="95.2" id="mask-2_1_" maskUnits="userSpaceOnUse" width="67.9" x="16" y="3.5"><g filter="url(#Adobe_OpacityMaskFilter_2_)"><path class="st3" d="M63.4 5.7c8.9 0 13.3 0 18.1 1.5 5.2 1.9 9.3 6 11.2 11.2 1.5 4.8 1.5 9.2 1.5 18.1v26.8c0 8.9 0 13.3-1.5 18.1-1.9 5.2-6 9.3-11.2 11.2-4.8 1.5-9.2 1.5-18.1 1.5H36.6c-8.9 0-13.3 0-18.1-1.5-5.2-1.9-9.3-6-11.2-11.2-1.5-4.8-1.5-9.2-1.5-18.1V36.6c0-8.9 0-13.3 1.5-18.1 1.9-5.2 6-9.3 11.2-11.2 4.8-1.5 9.2-1.5 18.1-1.5h26.8z" id="path-1_2_"/></g></mask><path d="M16 3.5h.7v95.2H16V3.5zm17 0h.7v95.2H33V3.5zm17 0h.7v95.2H50V3.5zm33.2 0h.7v95.2h-.7V3.5z" id="Lines" mask="url(#mask-2_1_)" fill="#777778"/></g></g></g></svg>